<svg width="42" height="58" viewBox="0 0 42 58" fill="none" xmlns="http://www.w3.org/2000/svg">
<ellipse cx="21.2037" cy="37.525" rx="6.12553" ry="9.975" fill="#0E0E0E"/>
<ellipse cx="21.2037" cy="25.65" rx="3.29836" ry="2.85" fill="#151313"/>
<path d="M16.5057 33.25C16.5057 33.25 13.8361 30.875 13.3912 30.875C12.9462 30.875 13.3912 28.5 13.3912 28.5M25.8493 33.25C25.8493 33.25 27.629 30.875 28.0739 30.875C28.5188 30.875 28.0739 28.5001 28.0739 28.5001" stroke="#0C0B0B"/>
<path d="M16.0206 36.1V36.1C14.5127 36.1 13.0673 36.7021 12.0054 37.7726L11.7798 38" stroke="#0C0B0B"/>
<path d="M25.9157 36.1V36.1C27.4235 36.1 28.869 36.7021 29.9309 37.7726L30.1564 38" stroke="#0C0B0B"/>
<path d="M16.4918 41.3251L14.9374 41.9127C13.491 42.4595 12.2317 43.4095 11.3087 44.6501V44.6501" stroke="#0C0B0B"/>
<path d="M26.3869 40.85L28.023 41.4979C29.639 42.1379 31.0348 43.2328 32.0412 44.65V44.65" stroke="#0C0B0B"/>
<path d="M19.7901 23.7501C19.7901 23.7501 18.3766 20.9001 17.9054 21.3751" stroke="#0C0B0B"/>
<path d="M22.6173 23.75C22.6173 23.75 24.0309 20.4052 24.5021 20.9627" stroke="#0C0B0B"/>
<path fill-rule="evenodd" clip-rule="evenodd" d="M7.42677 10.8347C4.87522 11.9557 3.784 12.8383 2.82718 15.1534L3.39403 57H40.5228V15.1534C39.4207 12.7169 38.5443 11.6677 36.1297 10.8347H7.42677ZM35.5628 12.9196H7.42677C5.4248 13.6146 4.65002 14.322 4.10259 16.3448L4.66944 55.0641H38.9639V16.3448C38.0279 14.401 37.2598 13.6871 35.5628 12.9196Z" fill="#0E0D0D" stroke="#0C0B0B"/>
<path d="M21.675 8.54998H32.9836L34.8684 5.69998H32.9836H10.3663H8.48151L10.3663 8.54998H14.607H16.963H21.675Z" fill="#121111"/>
<path d="M10.3663 8.54998V10.45H32.9836V8.54998H21.675H16.963H14.607H10.3663Z" fill="#121111"/>
<path d="M10.3663 8.54998V10.45H32.9836V8.54998M10.3663 8.54998H14.607H16.963H21.675H32.9836M10.3663 8.54998L8.48151 5.69998H10.3663M32.9836 8.54998L34.8684 5.69998H32.9836M10.3663 5.69998V2.84998H32.9836V5.69998M10.3663 5.69998H32.9836" stroke="#0C0B0B"/>
</svg>
