<svg width="44" height="60" viewBox="0 0 44 60" fill="none" xmlns="http://www.w3.org/2000/svg">
<path fill-rule="evenodd" clip-rule="evenodd" d="M5.88077 10.8618C3.17325 11.9856 2.01531 12.8704 1 15.1913L1.6015 57.1428H41V15.1913C39.8306 12.7487 38.9006 11.6969 36.3383 10.8618H5.88077ZM35.7368 12.9519H5.88077C3.75642 13.6487 2.93427 14.3578 2.35338 16.3857L2.95489 55.202H39.3459V16.3857C38.3526 14.437 37.5375 13.7213 35.7368 12.9519Z" fill="#0E0D0D" stroke="#0C0B0B"/>
<path d="M21 8.57147H33L35 5.71432H33H9H7L9 8.57147H13.5H16H21Z" fill="#121111"/>
<path d="M9 8.57147V10.4762H33V8.57147H21H16H13.5H9Z" fill="#121111"/>
<path d="M9 8.57147V10.4762H33V8.57147M9 8.57147H13.5H16H21H33M9 8.57147L7 5.71432H9M33 8.57147L35 5.71432H33M9 5.71432V2.85718H33V5.71432M9 5.71432H33" stroke="#0C0B0B"/>
<path d="M30.4968 47.619C29.5486 46.8892 18.4871 41.503 19.4352 34.9516C20.3833 28.4002 20.3833 30.5897 20.3833 30.5897" stroke="#0C0B0B"/>
<path d="M20.6418 19.0476L20.8401 27.2292L23.1081 19.2346L21.229 27.2887L25.4796 19.7883L21.5953 27.4055L27.6652 20.6876L21.925 27.5751L29.5809 21.8978L22.2054 27.7909L31.1531 23.3724L22.4257 28.0447L32.3213 25.0547L22.5774 28.3267L33.0407 26.8802L22.6548 28.626L33.2836 28.7786L22.6548 28.9313L33.0407 30.6771L22.5774 29.2306L32.3213 32.5026L22.4257 29.5126L31.1531 34.1849L22.2054 29.7664L29.5809 35.6595L21.925 29.9822L27.6652 36.8697L21.5953 30.1518L25.4796 37.769L21.229 30.2686L23.1081 38.3227L20.8401 30.3281L20.6418 38.5097L20.4435 30.3281L18.1755 38.3227L20.0547 30.2686L15.804 37.769L19.6883 30.1518L13.6184 36.8697L19.3586 29.9822L11.7027 35.6595L19.0782 29.7664L10.1305 34.1849L18.858 29.5126L8.9623 32.5026L18.7062 29.2306L8.24291 30.6771L18.6289 28.9313L8 28.7786L18.6289 28.626L8.24291 26.8802L18.7062 28.3267L8.9623 25.0547L18.858 28.0447L10.1305 23.3724L19.0782 27.7909L11.7027 21.8978L19.3586 27.5751L13.6184 20.6876L19.6883 27.4055L15.804 19.7883L20.0547 27.2887L18.1755 19.2346L20.4435 27.2292L20.6418 19.0476Z" fill="#171717"/>
<path d="M22.8123 42.1939C22.7696 42.0567 22.7929 41.904 22.8069 41.7635C22.8599 41.2313 23.0519 40.7121 23.2377 40.1946C23.5694 39.2702 23.9421 38.3883 24.4815 37.513C24.5177 37.4544 25.132 36.4682 25.1795 36.5004C25.2144 36.5241 25.0709 36.5137 25.0587 36.5092" stroke="#212021"/>
<path d="M22.7757 42.1355C22.6763 41.9763 22.5707 41.8186 22.4815 41.6559C22.3673 41.4475 22.3083 41.226 22.2067 41.0142C22.0518 40.691 21.8684 40.4159 21.5865 40.1508C21.3454 39.9239 21.048 39.7358 20.698 39.6136C20.5958 39.578 20.5155 39.5228 20.4088 39.4965C20.3642 39.4855 20.5039 39.508 20.5509 39.5013C20.6673 39.4846 20.7443 39.5199 20.8258 39.5663C21.0012 39.6661 21.1702 39.7894 21.3705 39.8637C21.4898 39.908 21.6075 39.9611 21.7163 40.0186C21.7802 40.0524 21.8703 40.1053 21.9351 40.1285C22.0213 40.1593 22.1361 40.2445 22.2206 40.2456C22.3119 40.2467 22.4533 40.3542 22.4913 40.415" stroke="#212021"/>
<path d="M22.5781 40.4497C22.4705 40.1993 22.4314 39.8923 22.3788 39.6307C22.3255 39.3652 22.232 39.0957 22.0807 38.8536C21.9723 38.6801 21.8723 38.501 21.7488 38.3337C21.6244 38.1651 21.4957 38.0011 21.3767 37.8301C21.3254 37.7563 21.239 37.6762 21.1538 37.6235C21.0269 37.5449 20.9297 37.4561 20.7954 37.3945C20.6735 37.3387 20.7736 37.3922 20.8171 37.4349C20.8467 37.4638 20.9221 37.4742 20.9688 37.4997C21.0356 37.5362 21.0577 37.6221 21.1152 37.6701C21.2672 37.7968 21.3527 37.9146 21.5509 38.017C21.6919 38.0899 21.8142 38.1745 21.9478 38.2519C22.0414 38.3061 22.15 38.3279 22.23 38.3895C22.3877 38.5107 22.5443 38.6447 22.703 38.771C22.7776 38.8304 22.8623 38.8905 22.9263 38.9532C22.9702 38.9962 23.0508 39.0052 23.0809 39.0533" stroke="#212021"/>
<path d="M23.0589 39.0181C22.9771 38.8154 23.0194 38.5381 23.0644 38.325C23.1225 38.0494 23.06 37.7868 22.9687 37.5264C22.9148 37.3725 22.9291 37.2384 22.8388 37.094C22.7057 36.881 22.5726 36.668 22.4395 36.455C22.287 36.211 22.1243 36.0045 21.9163 35.7863C21.8148 35.68 21.7836 35.5965 21.6103 35.565C21.5162 35.5478 21.5222 35.5948 21.6028 35.6217C21.6786 35.647 21.7833 35.6876 21.8455 35.7262C22.0388 35.8459 22.1266 35.9823 22.2479 36.1454C22.3069 36.2247 22.4347 36.296 22.5163 36.3658C22.6076 36.4439 22.7362 36.5214 22.8405 36.5913C23.1467 36.7967 23.3793 37.0255 23.666 37.2384" stroke="#212021"/>
<path d="M23.6916 37.2795C23.7708 37.207 23.7627 37.1186 23.7923 37.0284C23.8407 36.8813 23.9419 36.7466 23.9921 36.5987C24.0203 36.5154 24.0019 36.4171 24.0129 36.3294C24.0477 36.0516 24.0329 35.7682 24.043 35.4899C24.0498 35.3013 24.0403 35.1154 24.0656 34.9266C24.0857 34.7757 24.147 34.6324 24.1271 34.4803C24.1018 34.2881 24.0454 34.1166 23.9821 33.9313C23.9735 33.9063 23.8941 33.6944 23.8307 33.7179C23.7879 33.7337 23.7609 33.8487 23.7734 33.8798C23.7959 33.9358 23.8093 33.9868 23.8399 34.041C23.8784 34.1092 23.8317 34.1732 23.8429 34.2417C23.8895 34.5285 24.1833 34.8279 24.4148 35.0415C24.5311 35.1488 24.5896 35.2952 24.6898 35.4123C24.7604 35.4949 24.8085 35.5907 24.8641 35.6797C24.9279 35.7817 24.9916 35.8838 25.0554 35.9858" stroke="#212021"/>
<path d="M25.0236 36.1092C24.9861 36.0379 25.0688 35.9058 25.0805 35.8249C25.1014 35.6807 25.063 35.5616 25.1681 35.4289C25.2721 35.2977 25.4242 35.2009 25.5223 35.0721C25.6855 34.8578 25.9123 34.6912 26.1153 34.5014C26.3003 34.3286 26.5299 34.1985 26.7255 34.0359C26.8348 33.9451 26.9293 33.8239 27.0796 33.7683C27.1467 33.7434 27.2137 33.7186 27.2807 33.6938C27.3376 33.6727 27.2246 33.7798 27.2001 33.8239C27.1542 33.9067 27.0674 34.0049 27.0053 34.0813C26.9074 34.2018 26.8648 34.3351 26.803 34.4696C26.7447 34.5966 26.7213 34.6974 26.6847 34.8227C26.6459 34.9558 26.523 35.0798 26.4799 35.2189C26.427 35.39 26.3475 35.5551 26.2877 35.7247C26.2586 35.8072 26.2728 35.9329 26.2118 35.9965C26.1965 36.0125 26.1658 36.0966 26.1653 36.1127" stroke="#212021"/>
<path d="M26.0994 36.1528C26.0384 36.1753 26.0332 36.2118 26.0107 36.2584C26.0097 36.2605 25.9118 36.3652 25.9583 36.348C26.0666 36.3079 26.0855 36.1203 26.1595 36.0455C26.2518 35.9524 26.381 35.8335 26.5162 35.78C26.6049 35.7448 26.6593 35.6724 26.7463 35.6475C27.0993 35.5465 27.4455 35.4601 27.7877 35.3333C27.8714 35.3024 28.1201 35.1626 28.2211 35.1742C28.2322 35.1754 28.1719 35.2332 28.167 35.236C28.0756 35.2885 27.9661 35.3236 27.8721 35.3749C27.6443 35.4992 27.4978 35.6289 27.3324 35.7986C27.2798 35.8526 27.2888 35.925 27.2389 35.9708C27.1498 36.0527 27.0501 36.126 26.9666 36.2146C26.7837 36.4087 26.5722 36.58 26.3991 36.7808C26.2795 36.9195 26.1009 37.0135 25.9919 37.1581C25.9429 37.2231 25.8745 37.2699 25.8143 37.3278C25.774 37.3665 25.7473 37.435 25.6975 37.4654C25.6553 37.4912 25.5973 37.5362 25.5969 37.5768" stroke="#212021"/>
<path d="M24.5255 38.2922C24.6349 38.2402 24.6827 38.13 24.7982 38.0724C24.8774 38.033 24.8821 37.9988 24.9206 37.943C24.9589 37.8874 25.0185 37.8454 25.0931 37.8178C25.275 37.7504 25.4207 37.6607 25.5798 37.5654C25.7108 37.487 25.8436 37.4154 25.9733 37.337C26.1696 37.2182 26.407 37.1544 26.6066 37.041C26.7328 36.9694 26.8614 36.8746 27.0026 36.8223C27.0463 36.8061 27.2193 36.7901 27.1177 36.8277C26.9031 36.9072 26.7506 37.1015 26.6028 37.24C26.5196 37.318 26.4483 37.3957 26.3723 37.4775C26.2953 37.5604 26.212 37.5713 26.1263 37.6433C25.8979 37.8354 25.6557 38.0179 25.4202 38.2064C25.2463 38.3457 25.1682 38.5036 25.0192 38.6486C24.8826 38.7815 24.7493 38.9061 24.6363 39.0493C24.6071 39.0863 24.5208 39.1722 24.5186 39.2184C24.5181 39.228 24.5487 39.2782 24.5316 39.2509" stroke="#212021"/>
<path d="M23.8826 39.8997C24.2141 39.777 24.492 39.5449 24.7502 39.3489C24.9155 39.2234 25.1 39.0653 25.286 38.9583C25.3475 38.9229 25.4529 38.9044 25.484 38.8476C25.5255 38.7718 25.5987 38.7254 25.6794 38.6711C25.733 38.6351 25.7821 38.5877 25.8489 38.5937C25.906 38.5987 25.7826 38.6683 25.768 38.7104C25.7556 38.7464 25.6014 38.8605 25.5579 38.8896C25.4528 38.96 25.3945 39.0596 25.2978 39.1354C25.1791 39.2285 25.1332 39.377 24.9928 39.4646C24.8251 39.5691 24.7209 39.7419 24.5957 39.8719C24.4697 40.0027 24.3524 40.1359 24.2512 40.2784C24.0279 40.5929 23.8434 40.9088 23.5866 41.2039C23.4662 41.3422 23.3718 41.5027 23.2302 41.6295C23.1206 41.7276 23.0364 41.9428 22.8875 41.998" stroke="#212021"/>
<path d="M24.0577 39.8108C24.1657 39.7579 24.3078 39.5749 24.2919 39.4971C24.2906 39.4906 24.4178 39.3468 24.4344 39.3296C24.4713 39.2912 24.5144 39.2617 24.5072 39.2119" stroke="#212021"/>
</svg>
