<svg width="26" height="23" viewBox="0 0 26 23" fill="none" xmlns="http://www.w3.org/2000/svg">
<path d="M16.2823 9.27826C16.2823 14.4025 12.6374 18.5565 8.14116 18.5565C3.64492 18.5565 0 14.4025 0 9.27826C0 4.15402 3.64492 0 8.14116 0C12.6374 0 16.2823 4.15402 16.2823 9.27826ZM0.744054 9.27826C0.744054 13.9342 4.05585 17.7085 8.14116 17.7085C12.2265 17.7085 15.5383 13.9342 15.5383 9.27826C15.5383 4.62235 12.2265 0.84798 8.14116 0.84798C4.05585 0.84798 0.744054 4.62235 0.744054 9.27826Z" fill="#968989"/>
<rect width="14.1284" height="0.996935" transform="matrix(0.813887 0.581024 -0.481669 0.876353 14.5011 13.9175)" fill="#968989"/>
</svg>
